<svg xmlns="http://www.w3.org/2000/svg" xmlns:xlink="http://www.w3.org/1999/xlink" preserveAspectRatio="xMidYMid" width="163" height="43.844" viewBox="0 0 163 43.844">
  <defs>
    <style>
      .cls-1 {
        fill: #c61010;
        fill-rule: evenodd;
      }
    </style>
  </defs>
  <path d="M109.194,20.597 C108.320,20.597 107.612,19.897 107.612,19.033 C107.612,18.169 108.320,17.468 109.194,17.468 C110.068,17.468 110.777,18.169 110.777,19.033 C110.777,19.897 110.068,20.597 109.194,20.597 ZM40.015,34.120 C40.015,34.799 39.459,35.350 38.772,35.350 C38.085,35.350 37.528,34.799 37.528,34.120 C37.528,33.441 38.085,32.891 38.772,32.891 C39.459,32.891 40.015,33.441 40.015,34.120 ZM155.992,32.891 C145.620,33.310 139.912,26.297 138.132,24.621 C136.351,22.944 131.576,19.256 131.576,19.256 C125.415,14.395 119.367,14.562 119.367,14.562 L117.333,14.562 C108.629,14.982 99.699,20.150 99.699,20.150 L89.752,24.621 L88.621,28.197 C92.097,23.671 94.499,24.174 94.499,24.174 C96.703,24.174 95.630,26.856 95.630,26.856 C95.630,26.856 94.019,31.550 93.821,32.221 C93.623,32.891 94.273,32.668 94.273,32.668 C95.375,32.556 98.116,31.103 98.116,31.103 L100.151,23.950 L96.534,23.950 L96.534,23.727 L96.534,22.833 L100.377,22.609 C102.242,22.162 103.316,19.480 103.316,19.480 L102.638,22.609 L105.803,22.833 L105.577,23.950 L102.186,23.950 C102.186,23.950 100.066,31.522 99.925,32.221 C99.784,32.919 100.377,32.891 100.377,32.891 C101.734,33.087 104.673,31.326 104.673,31.326 L106.933,23.280 L106.707,22.609 L110.098,21.044 C110.098,21.044 107.357,29.650 106.933,30.879 C106.509,32.109 106.707,32.221 106.707,32.221 C107.714,32.530 109.109,31.370 109.647,30.873 C110.172,27.169 111.442,24.887 112.128,23.882 C115.502,18.683 120.498,19.033 120.498,19.033 L121.854,19.033 C131.285,19.799 131.123,30.209 131.123,30.209 L131.123,31.774 C131.995,31.869 132.577,32.093 135.193,33.562 C137.809,35.031 139.940,35.126 139.940,35.126 L140.392,35.126 C143.945,34.935 144.236,30.879 144.236,30.879 C144.946,38.319 139.262,38.032 139.262,38.032 L138.358,38.032 C134.159,38.000 130.445,34.903 130.445,34.903 C127.635,43.812 120.498,43.844 120.498,43.844 L119.594,43.844 C109.679,43.588 109.646,32.668 109.646,32.668 L109.646,31.326 C107.773,33.434 106.481,33.785 106.481,33.785 L107.838,34.009 L82.743,34.903 L49.058,34.903 C46.668,43.620 38.885,43.844 38.885,43.844 L38.659,43.844 C29.680,43.461 31.877,33.785 31.877,33.785 C32.135,42.982 37.981,42.503 37.981,42.503 C46.604,42.407 46.119,27.527 46.119,27.527 C47.799,28.548 49.736,31.550 49.736,31.550 C49.672,32.284 49.284,33.785 49.284,33.785 L84.326,33.785 L87.039,26.409 C87.039,26.409 86.780,26.377 86.361,26.409 C85.941,26.441 81.904,28.165 76.639,29.985 C71.375,31.805 65.336,31.997 65.336,31.997 L63.075,31.997 C54.839,31.550 50.576,24.525 49.510,23.056 C48.445,21.587 47.024,20.150 47.024,20.150 C44.725,17.990 41.824,18.139 41.824,18.139 L39.563,18.139 C35.644,18.586 32.555,25.813 31.198,28.644 C29.842,31.475 28.033,32.668 28.033,32.668 C24.265,35.201 15.147,35.126 15.147,35.126 L12.660,35.126 L-0.000,35.126 C-0.000,35.126 6.669,32.332 9.043,31.103 C11.417,29.874 13.828,24.360 14.469,22.833 C15.109,21.305 16.503,18.809 16.503,18.809 C20.196,12.737 27.355,13.221 27.355,13.221 L27.807,13.221 C31.349,13.333 33.459,15.009 33.459,15.009 C21.839,12.595 18.312,21.939 18.312,21.939 C16.323,26.230 13.791,29.091 13.791,29.091 C9.992,33.070 4.748,34.009 4.748,34.009 L12.886,34.009 C12.886,34.009 15.780,34.188 20.799,32.891 C25.818,31.595 29.390,23.950 29.390,23.950 C33.278,16.663 35.494,13.892 35.494,13.892 C40.286,7.052 47.476,3.833 47.476,3.833 C56.700,-0.145 70.309,0.034 70.309,0.034 C70.309,0.034 70.632,-0.030 78.448,0.034 C86.264,0.097 89.073,0.704 89.073,0.704 L88.395,1.151 C87.039,10.092 95.856,11.657 95.856,11.657 C106.514,7.218 120.046,6.963 120.046,6.963 C120.046,6.963 121.434,6.931 124.567,6.963 C127.700,6.995 130.219,7.442 132.028,7.633 C133.836,7.825 136.097,7.857 136.097,7.857 C137.445,7.839 138.064,7.330 138.347,6.897 L138.584,5.845 C141.291,10.463 141.888,21.937 141.966,23.717 L141.975,23.727 C146.807,29.427 151.244,30.432 151.244,30.432 C155.681,32.053 161.191,32.221 161.191,32.221 L163.000,32.221 C161.107,32.696 155.992,32.891 155.992,32.891 ZM113.037,35.350 C113.619,42.918 119.141,42.726 119.141,42.726 L120.498,42.726 C126.182,42.343 127.506,33.562 127.506,33.562 C124.858,32.636 121.887,33.594 119.820,33.785 C117.753,33.977 117.559,31.997 117.559,31.997 C117.623,30.337 119.141,30.432 119.141,30.432 L119.367,30.432 C120.692,30.496 120.724,31.997 120.724,31.997 C120.756,32.699 120.498,33.115 120.498,33.115 C121.661,33.115 121.854,32.891 123.437,32.221 C125.019,31.550 127.958,31.550 127.958,31.550 L127.958,28.421 C127.474,19.480 122.080,19.927 122.080,19.927 L121.176,19.927 C116.009,19.767 113.942,27.303 113.942,27.303 L113.889,27.241 C113.083,29.725 113.039,32.033 113.037,32.394 L113.037,35.350 ZM137.906,9.869 L137.680,9.869 L137.692,9.815 C133.487,8.722 125.172,7.825 120.724,7.857 C116.202,7.889 112.585,8.304 112.585,8.304 C103.801,9.134 92.400,14.658 85.908,17.021 C79.417,19.384 74.379,19.480 74.379,19.480 L73.248,19.480 C66.143,19.256 66.692,13.445 66.692,13.445 C67.403,5.047 71.440,1.822 71.440,1.822 C65.917,2.397 61.718,5.845 61.718,5.845 C54.516,11.369 54.710,18.809 54.710,18.809 L54.710,19.480 C55.291,30.337 68.049,29.985 68.049,29.985 C73.248,29.922 79.804,27.527 79.804,27.527 C87.071,25.228 94.273,20.821 94.273,20.821 C94.273,20.821 99.021,17.878 106.933,14.115 C114.846,10.353 119.367,10.986 119.367,10.986 L121.854,10.986 C130.756,10.846 137.227,18.586 137.227,18.586 L137.622,19.013 C137.444,18.253 136.909,15.866 136.775,14.115 C136.614,12.008 137.906,10.092 137.906,10.092 L137.906,9.869 ZM139.036,11.657 L138.810,11.657 C138.099,12.040 138.003,13.828 137.906,15.680 C137.839,16.954 137.971,18.589 138.060,19.487 L141.676,23.403 L139.036,11.657 ZM67.822,1.151 C67.822,1.151 47.664,0.294 40.920,14.786 L42.050,14.786 C42.050,14.786 47.137,14.600 50.415,21.268 C50.415,21.268 53.015,3.386 67.822,1.151 ZM72.570,1.598 C72.570,1.598 68.237,5.920 68.049,11.657 C68.049,11.657 67.634,16.872 73.926,17.021 L76.187,17.021 C76.187,17.021 81.312,16.984 94.725,12.104 C94.725,12.104 83.309,8.639 87.717,1.151 C87.717,1.151 76.074,0.965 72.570,1.598 ZM91.786,33.785 L86.587,33.785 C86.587,33.785 87.689,28.449 92.465,25.738 C92.465,25.738 93.934,25.068 93.595,26.409 L92.012,31.103 C92.012,31.103 91.023,33.198 91.786,33.785 ZM97.890,31.550 C97.890,31.550 95.479,33.171 93.821,33.785 L98.343,33.785 C98.343,33.785 97.438,33.096 97.890,31.550 ZM104.447,31.997 C104.447,31.997 102.676,33.264 100.603,33.785 L105.125,33.785 C105.125,33.785 104.145,33.357 104.447,31.997 Z" class="cls-1"/>
</svg>
